PERFORMER "Deadmau5"
TITLE "Essential Mix (2008-07-19) [TMB]"
FILE "2008-07-19 - EM - Deadmau5 (Mp3).mp3" MP3
  TRACK 01 AUDIO
    PERFORMER "Essential Mix"
    TITLE "Intro"
    INDEX 01 00:00:00
  TRACK 02 AUDIO
    PERFORMER "Deadmau5"
    TITLE "Complications"
    INDEX 01 02:32:14
  TRACK 03 AUDIO
    PERFORMER "Deadmau5"
    TITLE "Sometimes Complicated"
    INDEX 01 09:02:15
  TRACK 04 AUDIO
    PERFORMER "Deadmau5"
    TITLE "Bye Friend"
    INDEX 01 16:15:24
  TRACK 05 AUDIO
    PERFORMER "Sydney Blu"
    TITLE "Senses Of The Mind"
    INDEX 01 20:22:63
  TRACK 06 AUDIO
    PERFORMER "Deadmau5 vs. Jelo"
    TITLE "The Reward Is More Cheese (Summer Festival 08 Version)"
    INDEX 01 26:22:64
  TRACK 07 AUDIO
    PERFORMER "Deadmau5"
    TITLE "Hi Friend"
    INDEX 01 28:30:26
  TRACK 08 AUDIO
    PERFORMER "BSOD"
    TITLE "Milton"
    INDEX 01 33:45:29
  TRACK 09 AUDIO
    PERFORMER "Supermayer"
    TITLE "2 Of Us"
    INDEX 01 40:30:30
  TRACK 10 AUDIO
    PERFORMER "Nathan Fake"
    TITLE "The Sky Was Pink (Deadmau5 Edit)"
    INDEX 01 46:15:30
  TRACK 11 AUDIO
    PERFORMER "Matt Rock"
    TITLE "What You Feel (Deadmau5 Remix)"
    INDEX 01 52:15:30
  TRACK 12 AUDIO
    PERFORMER "Deadmau5"
    TITLE "Desynchronised"
    INDEX 01 56:15:30
  TRACK 13 AUDIO
    PERFORMER "John Dahlbäck"
    TITLE "Pyramid"
    INDEX 01 63:00:30
  TRACK 14 AUDIO
    PERFORMER "Deadmau5"
    TITLE "Faxing Berlin (Piano Version)"
    INDEX 01 69:00:31
  TRACK 15 AUDIO
    PERFORMER "Deadmau5 vs. Morgan Page feat. Lissie"
    TITLE "Faxing Berlin vs. The Longest Road (Accapella)"
    INDEX 01 69:30:31
  TRACK 16 AUDIO
    PERFORMER "Deadmau5 & Kaskade"
    TITLE "I Remember"
    INDEX 01 75:30:31
  TRACK 17 AUDIO
    PERFORMER "Deadmau5"
    TITLE "Arguru"
    INDEX 01 85:22:72
  TRACK 18 AUDIO
    PERFORMER "Deadmau5"
    TITLE "Alone With You"
    INDEX 01 91:22:72
  TRACK 19 AUDIO
    PERFORMER "Deadmau5"
    TITLE "Brazil (Second Edit)"
    INDEX 01 98:22:73
  TRACK 20 AUDIO
    PERFORMER "Deadmau5"
    TITLE "Clockwork"
    INDEX 01 103:45:37
  TRACK 21 AUDIO
    PERFORMER "Deadmau5"
    TITLE "Jaded"
    INDEX 01 113:45:37